<svg xmlns="http://www.w3.org/2000/svg" viewBox="0 0 735.8 679.01"><defs><style>.cls-1{fill:#414042;}.cls-2{fill:#00aeef;}.cls-3{fill:#ccc;}.cls-4{fill:#e0e0e0;}.cls-5{fill:#fff;}</style></defs><title>Zasób 15</title><g id="Warstwa_2" data-name="Warstwa 2"><g id="Warstwa_1-2" data-name="Warstwa 1"><path class="cls-1" d="M385.41,558.24a59.53,59.53,0,1,0-2.69,119h7a13.19,13.19,0,1,0,0-26.38H384a33.15,33.15,0,1,1,33.15-33.15v48.41a13.16,13.16,0,0,0,12.47,12.53l.72,0A13.27,13.27,0,0,0,443.53,666V616.52A59.42,59.42,0,0,0,385.41,558.24Z"/><path class="cls-1" d="M60.92,558.24a59.52,59.52,0,1,0-2.69,119h7a13.19,13.19,0,1,0,0-26.38H59.53a33.14,33.14,0,1,1,33.14-33.14v48.4a13.16,13.16,0,0,0,12.46,12.53l.72,0A13.26,13.26,0,0,0,119,666V616.51A59.41,59.41,0,0,0,60.92,558.24Z"/><path class="cls-1" d="M189.34,559.19a.75.75,0,0,0-.16,0c-28.25,0-53.37,22.68-55,52.59l0,55c0,6.4,6.08,12,13,12s13-5.61,13-12v-54c0-16.64,12.71-29.89,29-30.15h.16a29.62,29.62,0,0,1,29.47,29.78v54.4c0,6.4,6.08,12,13,12s13-5.61,13-12l0-55C245,583.53,217.92,559.19,189.34,559.19Z"/><path class="cls-1" d="M523.58,570.16a12.61,12.61,0,0,0-10.93-11.25l-3.36,0a70.29,70.29,0,0,0-16.5,2.1,48.16,48.16,0,0,0-16.12,7.23,40.14,40.14,0,0,0-12.22,13.68,46,46,0,0,0-4.78,20.92v63.3c0,6.74,6.24,12.29,13.05,12.36s13-5.62,13-12.35V602.63c0-3.28,0-6.52,1.56-9.29a16.86,16.86,0,0,1,5.47-5.86,22.78,22.78,0,0,1,8-2.65,40.1,40.1,0,0,1,8.48-.87l3.4-.08C519.27,583.67,524.26,576.89,523.58,570.16Z"/><path class="cls-1" d="M724.59,617.24l-.16-.12a47.59,47.59,0,0,0-17.27-7.44l-14-3.51c-5.65-1.15-14.47-3.85-16.51-5.16a6.78,6.78,0,0,1-3.2-6.32,10.29,10.29,0,0,1,.86-4.23,10.92,10.92,0,0,1,2.78-3.92c2.66-2.13,6.09-4.25,12.79-4.43a26.68,26.68,0,0,1,14,4.48l3.61,2.89c3.78,3,11.35,5.3,16.67-.93a11.76,11.76,0,0,0-.51-16.33l-.66-.61a28.2,28.2,0,0,0-2.59-2.2,49.79,49.79,0,0,0-29.51-8.94,52.21,52.21,0,0,0-16.72,2.28,35.17,35.17,0,0,0-24.47,34c-.09,10.46,3.8,18.45,11.55,23.73,4.15,2.88,10.77,5.41,20.23,7.74l13.62,3.1c1.7.31,3.92.91,6.1,1.31l.64.12.11,0c7.42,1.5,9.14,6.91,9.5,8.5a20,20,0,0,1,.29,3.28,9.59,9.59,0,0,1-1.8,5.92,14.6,14.6,0,0,1-6.67,4.28,36,36,0,0,1-11.95,1.77c-10.11,0-16.32-2.64-19.68-7.47l-.24-.34a11.45,11.45,0,0,0-18.06,14.07,11.22,11.22,0,0,0,1.06,1.18,45.49,45.49,0,0,0,3.39,3.48,38.79,38.79,0,0,0,14.31,8.11,78.15,78.15,0,0,0,19.7,3.4,57.68,57.68,0,0,0,29.09-7.87c9.76-5.77,14.76-15.41,14.89-28.64C736,631.69,732.19,623.19,724.59,617.24Z"/><path class="cls-1" d="M307.63,654.88l-7.66,0a10.64,10.64,0,0,1-4.18-.84,4.29,4.29,0,0,1-2.14-4.39V590l7.53.15c6.6-.49,11.76-6.79,11.26-13.54-.47-6.37-5.64-11.75-11.51-11.75h-7.27v-26h0a13,13,0,0,0-26,0h0V565.1l-4.81-.08c-6.6.49-11.85,7.1-11.35,13.85.47,6.37,5.55,12.05,11.42,12.05h4.73v59.21c0,.12,0,.24,0,.36s0,.25,0,.38c0,15.43,9,27.94,25.67,27.94H306.7l.85-.12a12.39,12.39,0,0,0,8-5,12,12,0,0,0-7.9-18.82Z"/><path class="cls-1" d="M567.52,619.13a12,12,0,0,0,12,12h45.79a12,12,0,0,0,12-12A57.77,57.77,0,1,0,579.5,676.9h45.79a12,12,0,1,0,0-24H579.5a33.82,33.82,0,1,1,30.94-47.46l.74,1.67H579.5A12,12,0,0,0,567.52,619.13Z"/><path class="cls-2" d="M603.56,250.38c0,109.25-12.69,215-152.34,215-73.56,0-269.64-65.32-310.78-236.78C108,93.4,205,0,359.82,0S603.56,112.1,603.56,250.38Z"/><path class="cls-3" d="M407.12,307.53a19.79,19.79,0,0,0-6.44-13.66,19.58,19.58,0,0,0-14.48-6.39H375.58A51,51,0,0,1,324,241.35c0-.52-.08-1-.12-1.55q-.09-1.38-.14-2.76c0-.5-.08-1-.08-1.5,0-.17,0-.33,0-.5a52.91,52.91,0,0,1,10.26-30.86,63.28,63.28,0,0,1,47.22-21.81l-9.31-1.48A74.32,74.32,0,0,0,320,308.49l.09.07c.38.39.75.79,1.14,1.17a92.26,92.26,0,0,0,55.6,18.57h10.61c.56,0,1.1-.11,1.65-.15a19.85,19.85,0,0,0,18.14-19.63C407.22,308.17,407.13,307.86,407.12,307.53Z"/><path class="cls-4" d="M321.18,309.69A74.39,74.39,0,0,1,373.1,182a75.16,75.16,0,0,1,8,.45,53.1,53.1,0,0,1,48.92,52.84c0-.11,0-.22,0-.33a126.45,126.45,0,0,0-37.22-89.62c-.55-.55-1.25-.75-1.81-1.28a91.25,91.25,0,0,0-14.2-1.43,92.8,92.8,0,0,0-55.66,167.09Z"/><path class="cls-5" d="M424.3,156.25c-13.85-7-24.89-10.45-33-12.17l-.28,0a14,14,0,0,0,1.15,1.37,126.32,126.32,0,0,1,37.18,89.53c0,.11,0,.22,0,.33s0,.11,0,.17v72.93a19.79,19.79,0,0,0,22,19.66c10.11-1.11,17.55-10,17.55-20.2v-72.4A92.71,92.71,0,0,0,424.3,156.25Z"/></g></g></svg>