<svg xmlns="http://www.w3.org/2000/svg" viewBox="0 0 1393.7 376.35"><defs><style>.cls-1{fill:#414042;}.cls-2{fill:#00aeef;}.cls-3{fill:#ccc;}.cls-4{fill:#e0e0e0;}.cls-5{fill:#fff;}</style></defs><title>antares_logo_full</title><g id="Warstwa_2" data-name="Warstwa 2"><g id="Warstwa_1-2" data-name="Warstwa 1"><path class="cls-1" d="M950.92,111a75.23,75.23,0,1,0-3.4,150.41h8.83a16.67,16.67,0,1,0,0-33.34h-7.18a41.89,41.89,0,1,1,41.89-41.89V247.4a16.63,16.63,0,0,0,15.75,15.84l.9,0a16.76,16.76,0,0,0,16.65-16.09V184.68A75.09,75.09,0,0,0,950.92,111Z"/><path class="cls-1" d="M540.89,111a75.21,75.21,0,1,0-3.4,150.39h8.83a16.67,16.67,0,1,0,0-33.33h-7.18A41.88,41.88,0,1,1,581,186.21v61.16a16.62,16.62,0,0,0,15.75,15.83l.9,0a16.76,16.76,0,0,0,16.64-16.08V184.67A75.07,75.07,0,0,0,540.89,111Z"/><path class="cls-1" d="M703.16,112.24a.94.94,0,0,0-.2,0c-35.7,0-67.44,28.66-69.46,66.46l0,69.49c0,8.09,7.69,15.18,16.45,15.18s16.45-7.1,16.45-15.18V179.91c0-21,16.06-37.77,36.6-38.1h.2a37.43,37.43,0,0,1,37.24,37.64v68.74c0,8.09,7.69,15.18,16.45,15.18s16.45-7.1,16.45-15.18l0-69.48C773.48,143,739.28,112.24,703.16,112.24Z"/><path class="cls-1" d="M1111.72,111.88l-4.25,0a88.82,88.82,0,0,0-20.84,2.66,60.86,60.86,0,0,0-20.36,9.13,50.73,50.73,0,0,0-15.45,17.29,58.07,58.07,0,0,0-6,26.44v80c0,8.52,7.88,15.53,16.5,15.62,8.52-.09,16.41-7.1,16.41-15.61V167.13c0-4.14,0-8.24,2-11.74a21.31,21.31,0,0,1,6.91-7.41c3.17-1.94,6.4-2.62,10.08-3.35a50.67,50.67,0,0,1,10.71-1.1l4.3-.11c8.45-.25,14.74-8.82,13.89-17.33A15.93,15.93,0,0,0,1111.72,111.88Z"/><path class="cls-1" d="M1379.54,185.59l-.2-.15a60.14,60.14,0,0,0-21.83-9.4l-17.71-4.44c-7.14-1.46-18.28-4.86-20.86-6.52a8.57,8.57,0,0,1-4-8,13,13,0,0,1,1.09-5.34,13.79,13.79,0,0,1,3.51-5c3.36-2.69,7.7-5.37,16.17-5.59,6.17-.16,14.47,3.13,17.69,5.66l4.57,3.65c4.77,3.85,14.34,6.7,21.06-1.18a14.86,14.86,0,0,0-.64-20.63l-.84-.78a35.64,35.64,0,0,0-3.27-2.78,62.91,62.91,0,0,0-37.29-11.29,66,66,0,0,0-21.13,2.88,44.44,44.44,0,0,0-30.92,43c-.11,13.21,4.81,23.31,14.6,30,5.25,3.64,13.6,6.84,25.57,9.78l17.22,3.92c2.15.4,5,1.15,7.71,1.65l.81.15.14,0c9.37,1.9,11.55,8.73,12,10.74a25.21,25.21,0,0,1,.37,4.14,12.11,12.11,0,0,1-2.27,7.48,18.46,18.46,0,0,1-8.42,5.41,45.55,45.55,0,0,1-15.1,2.24c-12.78,0-20.62-3.34-24.86-9.44l-.3-.43a14.47,14.47,0,0,0-22.82,17.79,14.17,14.17,0,0,0,1.33,1.49,57.49,57.49,0,0,0,4.28,4.4c5.17,4.86,11.35,7.92,18.08,10.25a98.76,98.76,0,0,0,24.9,4.3,72.89,72.89,0,0,0,36.76-9.95c12.33-7.29,18.66-19.47,18.82-36.19C1393.9,203.85,1389.14,193.11,1379.54,185.59Z"/><path class="cls-1" d="M844.51,151.39c8.34-.62,14.86-8.58,14.23-17.11-.6-8.06-7.13-14.85-14.55-14.85h-12.5v31.7Z"/><path class="cls-1" d="M852.64,233.16l-9.68,0a13.45,13.45,0,0,1-5.28-1.06,5.42,5.42,0,0,1-2.7-5.55l0-140h0a16.7,16.7,0,0,0-16.41-16.06c-9.07,0-16.42,7.83-16.47,16.06h0V119.7l-6.07-.1c-8.34.62-15,9-14.34,17.5.6,8.06,7,15.23,14.44,15.23h6v74.82c0,.15,0,.3,0,.46s0,.32,0,.48c0,19.5,11.4,35.3,32.44,35.3h16.92l1.07-.16a15.66,15.66,0,0,0,10.08-6.29,15.11,15.11,0,0,0-10-23.79Z"/><path class="cls-1" d="M1196.19,261h57.87a15.13,15.13,0,1,0,0-30.27h-57.87a42.73,42.73,0,1,1,39.1-60l.93,2.11h-40a15.13,15.13,0,1,0,0,30.27h57.87A15.15,15.15,0,0,0,1269.19,188a73,73,0,1,0-73,73Z"/><path class="cls-2" d="M379.57,202.48c0,88.35-10.27,173.87-123.2,173.87-59.49,0-218.06-52.82-251.32-191.48C-21.18,75.53,57.26,0,182.45,0S379.57,90.65,379.57,202.48Z"/><path class="cls-3" d="M220.7,248.7a16,16,0,0,0-5.21-11,15.83,15.83,0,0,0-11.71-5.17H195.2a41.28,41.28,0,0,1-41.73-37.3c0-.42-.07-.84-.1-1.25q-.07-1.11-.11-2.23c0-.41-.06-.8-.06-1.21,0-.14,0-.27,0-.41a42.78,42.78,0,0,1,8.3-25,51.18,51.18,0,0,1,38.18-17.63l-7.53-1.2a60.1,60.1,0,0,0-41.94,103.18l.08.05c.31.31.61.64.92.95a74.61,74.61,0,0,0,45,15h8.58c.46,0,.89-.09,1.33-.12a16.06,16.06,0,0,0,14.67-15.88C220.78,249.21,220.72,249,220.7,248.7Z"/><path class="cls-4" d="M151.21,250.45a60.16,60.16,0,0,1,42-103.28,60.78,60.78,0,0,1,6.51.36,42.94,42.94,0,0,1,39.56,42.73c0-.09,0-.18,0-.27a102.26,102.26,0,0,0-30.1-72.47c-.45-.44-1-.6-1.47-1a73.79,73.79,0,0,0-11.48-1.16,75,75,0,0,0-45,135.12Z"/><path class="cls-5" d="M234.6,126.36c-11.2-5.63-20.13-8.45-26.67-9.84l-.22,0a11.34,11.34,0,0,0,.93,1.11A102.16,102.16,0,0,1,238.7,190c0,.09,0,.18,0,.27s0,.09,0,.13v59a16,16,0,0,0,17.81,15.9c8.17-.9,14.19-8.11,14.19-16.34V190.4A75,75,0,0,0,234.6,126.36Z"/></g></g></svg>