<?xml version="1.0" encoding="utf-8"?>
<!-- Generator: Adobe Illustrator 16.0.0, SVG Export Plug-In . SVG Version: 6.00 Build 0)  -->
<!DOCTYPE svg PUBLIC "-//W3C//DTD SVG 1.1//EN" "http://www.w3.org/Graphics/SVG/1.1/DTD/svg11.dtd">
<svg version="1.1" id="Layer_1" xmlns="http://www.w3.org/2000/svg" xmlns:xlink="http://www.w3.org/1999/xlink" x="0px" y="0px"
	 width="28px" height="28px" viewBox="0 0 28 28" enable-background="new 0 0 28 28" xml:space="preserve">
<path fill-rule="evenodd" clip-rule="evenodd" d="M27,25h-5c-0.552,0-1-0.448-1-1s0.448-1,1-1h5c0.552,0,1,0.448,1,1
	S27.552,25,27,25z M27,22h-5c-0.552,0-1-0.448-1-1s0.448-1,1-1h5c0.552,0,1,0.448,1,1S27.552,22,27,22z M27,19h-5
	c-0.552,0-1-0.448-1-1s0.448-1,1-1h5c0.552,0,1,0.448,1,1S27.552,19,27,19z M27,16h-5c-0.552,0-1-0.448-1-1s0.448-1,1-1h5
	c0.552,0,1,0.448,1,1S27.552,16,27,16z M21,7h-3c-1.104,0-2-0.896-2-2V2H3C2.448,2,2,2.448,2,3v22c0,0.552,0.448,1,1,1h8v2H2
	c-1.052,0-2-1.021-2-2V2c0-1.052,0.979-2,2-2h14.929L23,6.071V12h-2V7z M14,23h5c0.552,0,1,0.448,1,1s-0.448,1-1,1h-5
	c-0.552,0-1-0.448-1-1S13.448,23,14,23z M14,26h5c0.552,0,1,0.448,1,1s-0.448,1-1,1h-5c-0.552,0-1-0.448-1-1S13.448,26,14,26z
	 M22,26h5c0.552,0,1,0.448,1,1s-0.448,1-1,1h-5c-0.552,0-1-0.448-1-1S21.448,26,22,26z"/>
</svg>
