<?xml version="1.0" encoding="utf-8"?>
<!-- Generator: Adobe Illustrator 16.0.0, SVG Export Plug-In . SVG Version: 6.00 Build 0)  -->
<!DOCTYPE svg PUBLIC "-//W3C//DTD SVG 1.1//EN" "http://www.w3.org/Graphics/SVG/1.1/DTD/svg11.dtd">
<svg version="1.1" id="Layer_1" xmlns="http://www.w3.org/2000/svg" xmlns:xlink="http://www.w3.org/1999/xlink" x="0px" y="0px"
	 width="28px" height="28px" viewBox="0 0 28 28" enable-background="new 0 0 28 28" xml:space="preserve">
<path fill-rule="evenodd" clip-rule="evenodd" d="M28,25c0,1.031-0.119,2.033-0.33,3H27h-1.393H2.393H1H0.33
	C0.119,27.033,0,26.031,0,25c0-6.203,4.038-8.242,9.626-8.807C8.027,14.518,7,11.586,7,7c0-3.866,3.134-7,7-7c3.866,0,7,3.134,7,7
	c0,4.576-1.031,7.513-2.635,9.191C23.958,16.756,28,18.793,28,25z M19,7.444C19,4.438,16.761,2,14,2S9,4.438,9,7.444
	C9,13.684,11.239,16,14,16S19,13.66,19,7.444z M14,18c-6.627,0-12,0.373-12,7c0,0.339,0.038,0.668,0.068,1h23.864
	C25.962,25.668,26,25.339,26,25C26,18.373,20.627,18,14,18z"/>
</svg>
