<?xml version="1.0" encoding="utf-8"?>
<!-- Generator: Adobe Illustrator 16.0.0, SVG Export Plug-In . SVG Version: 6.00 Build 0)  -->
<!DOCTYPE svg PUBLIC "-//W3C//DTD SVG 1.1//EN" "http://www.w3.org/Graphics/SVG/1.1/DTD/svg11.dtd">
<svg version="1.1" id="Layer_1" xmlns="http://www.w3.org/2000/svg" xmlns:xlink="http://www.w3.org/1999/xlink" x="0px" y="0px"
	 width="28px" height="24.609px" viewBox="0 0 28 24.609" enable-background="new 0 0 28 24.609" xml:space="preserve">
<path fill-rule="evenodd" clip-rule="evenodd" d="M23.118,24.609L21.7,23.191c2.624-2.2,4.294-5.5,4.294-9.191
	c0-6.625-5.37-11.995-11.995-11.995S2.005,7.375,2.005,14c0,3.437,1.454,6.528,3.77,8.715l-1.418,1.418C1.678,21.583,0,17.991,0,14
	C0,6.268,6.268,0,14,0s14,6.268,14,14C28,18.246,26.103,22.042,23.118,24.609z M12.267,11.558c0.099-0.113,0.217-0.218,0.383-0.292
	C15.248,10.112,20,8,20,8s-2.013,4.529-3.183,7.162c-0.069,0.156-0.159,0.277-0.257,0.383C16.034,16.413,15.09,17,14,17
	c-1.657,0-3-1.343-3-3C11,12.99,11.502,12.102,12.267,11.558z"/>
</svg>
