<?xml version="1.0" encoding="utf-8"?>
<!-- Generator: Adobe Illustrator 16.0.0, SVG Export Plug-In . SVG Version: 6.00 Build 0)  -->
<!DOCTYPE svg PUBLIC "-//W3C//DTD SVG 1.1//EN" "http://www.w3.org/Graphics/SVG/1.1/DTD/svg11.dtd">
<svg version="1.1" id="Layer_1" xmlns="http://www.w3.org/2000/svg" xmlns:xlink="http://www.w3.org/1999/xlink" x="0px" y="0px"
	 width="28px" height="28px" viewBox="0 0 28 28" enable-background="new 0 0 28 28" xml:space="preserve">
<path fill-rule="evenodd" clip-rule="evenodd" d="M25,19h-2H8H6L2.421,2H1C0.448,2,0,1.552,0,1s0.448-1,1-1h1l0,0h2l0.842,4H26h1h1
	L25,19z M5.263,6l2.316,11H23.4l2.2-11H5.263z M10,22c1.657,0,3,1.344,3,3s-1.343,3-3,3c-1.657,0-3-1.343-3-3S8.343,22,10,22z
	 M21,22c1.657,0,3,1.344,3,3s-1.343,3-3,3c-1.657,0-3-1.343-3-3S19.343,22,21,22z"/>
</svg>
