<?xml version="1.0" encoding="utf-8"?>
<!-- Generator: Adobe Illustrator 16.0.0, SVG Export Plug-In . SVG Version: 6.00 Build 0)  -->
<!DOCTYPE svg PUBLIC "-//W3C//DTD SVG 1.1//EN" "http://www.w3.org/Graphics/SVG/1.1/DTD/svg11.dtd">
<svg version="1.1" id="Layer_1" xmlns="http://www.w3.org/2000/svg" xmlns:xlink="http://www.w3.org/1999/xlink" x="0px" y="0px"
	 width="24px" height="24px" viewBox="0 0 24 24" enable-background="new 0 0 24 24" xml:space="preserve">
<path fill-rule="evenodd" clip-rule="evenodd" d="M22,24h-6c-1.104,0-2-0.896-2-2v-6c0-1.104,0.896-2,2-2h6c1.104,0,2,0.896,2,2v6
	C24,23.104,23.104,24,22,24z M22,17c0-0.552-0.448-1-1-1h-4c-0.552,0-1,0.448-1,1v4c0,0.552,0.448,1,1,1h4c0.552,0,1-0.448,1-1V17z
	 M22,10h-6c-1.104,0-2-0.896-2-2V2c0-1.104,0.896-2,2-2h6c1.104,0,2,0.896,2,2v6C24,9.104,23.104,10,22,10z M22,3
	c0-0.552-0.448-1-1-1h-4c-0.552,0-1,0.448-1,1v4c0,0.552,0.448,1,1,1h4c0.552,0,1-0.448,1-1V3z M8,24H2c-1.105,0-2-0.896-2-2v-6
	c0-1.104,0.895-2,2-2h6c1.104,0,2,0.896,2,2v6C10,23.104,9.104,24,8,24z M8,17c0-0.552-0.448-1-1-1H3c-0.552,0-1,0.448-1,1v4
	c0,0.552,0.448,1,1,1h4c0.552,0,1-0.448,1-1V17z M8,10H2c-1.105,0-2-0.896-2-2V2c0-1.104,0.895-2,2-2h6c1.104,0,2,0.896,2,2v6
	C10,9.104,9.104,10,8,10z M8,3c0-0.552-0.448-1-1-1H3C2.448,2,2,2.448,2,3v4c0,0.552,0.448,1,1,1h4c0.552,0,1-0.448,1-1V3z"/>
</svg>
