<?xml version="1.0" encoding="utf-8"?>
<!-- Generator: Adobe Illustrator 16.0.0, SVG Export Plug-In . SVG Version: 6.00 Build 0)  -->
<!DOCTYPE svg PUBLIC "-//W3C//DTD SVG 1.1//EN" "http://www.w3.org/Graphics/SVG/1.1/DTD/svg11.dtd">
<svg version="1.1" id="Layer_1" xmlns="http://www.w3.org/2000/svg" xmlns:xlink="http://www.w3.org/1999/xlink" x="0px" y="0px"
	 width="27.976px" height="27.976px" viewBox="0 0 27.976 27.976" enable-background="new 0 0 27.976 27.976" xml:space="preserve">
<path fill-rule="evenodd" clip-rule="evenodd" d="M25.186,22.364l0.112,0.113l-1.414,1.414l0,0c0,0,0,0,0,0l-1.414,1.414
	l-0.111-0.111c-4.953,3.709-11.793,3.709-16.747-0.002l-0.113,0.113l-2.828-2.828l0.112-0.113
	c-3.711-4.954-3.71-11.795-0.001-16.747L2.671,5.506l2.828-2.828L5.612,2.79c5.483-4.108,13.286-3.684,18.272,1.302
	C28.87,9.078,29.293,16.881,25.186,22.364z M20.933,23.769l-2.906-2.906c-2.491,1.46-5.592,1.468-8.085,0L7.04,23.764
	C11.189,26.718,16.786,26.721,20.933,23.769z M9.745,9.752c-2.341,2.341-2.341,6.137,0,8.479s6.137,2.341,8.479,0
	c2.342-2.341,2.342-6.137,0-8.479S12.086,7.411,9.745,9.752z M4.212,20.935l2.901-2.901c-1.468-2.494-1.46-5.594,0-8.085
	L4.207,7.042C1.255,11.189,1.258,16.787,4.212,20.935z M7.035,4.214L9.942,7.12c2.491-1.46,5.591-1.468,8.085,0l2.901-2.901
	C16.78,1.265,11.182,1.262,7.035,4.214z M23.757,7.047l-2.901,2.901c1.468,2.494,1.46,5.594,0,8.085l2.906,2.906
	C26.714,16.793,26.71,11.196,23.757,7.047z"/>
</svg>
