<svg id="Warstwa_1" xmlns="http://www.w3.org/2000/svg" viewBox="0 0 420.7 90.2"><style>.st0{fill:#fff}.st1{fill:#00aeef}</style><title>Logo z napisem</title><path class="st0" d="M90.2 45.1C90.2 20.2 70 0 45.1 0 20.2 0 0 20.2 0 45.1 0 70 20.2 90.2 45.1 90.2h45.1V45.1zM296.9 66.6V45.2c0-9.3-7.5-16.8-16.8-16.8s-16.8 7.5-16.8 16.8S270.8 62 280.1 62h5.2c2.1 0 3.8 1.7 3.8 3.8 0 2.1-1.7 3.8-3.8 3.8h-5.8c-13.5-.3-24.2-11.5-23.8-25 .3-13.5 11.5-24.2 25-23.8 13.1.3 23.6 10.8 23.8 23.9v22c-.1 2.1-1.9 3.7-4 3.6-2-.2-3.5-1.7-3.6-3.7zM157.9 66.6V45.2c0-9.3-7.5-16.8-16.8-16.8s-16.8 7.5-16.8 16.8S131.8 62 141.1 62h5.2c2.1 0 3.8 1.7 3.8 3.8 0 2.1-1.7 3.8-3.8 3.8h-5.8c-13.5-.3-24.2-11.5-23.8-25 .3-13.5 11.5-24.2 25-23.8 13.1.3 23.6 10.8 23.8 23.9v22c-.1 2.1-1.9 3.7-4 3.6-2-.2-3.5-1.7-3.6-3.7zM245.6 62.2h-3.1c-.8 0-1.7-.2-2.5-.5-1.2-.6-1.8-1.9-1.6-3.2V32.3h4.5c2-.1 3.5-1.9 3.4-3.9-.1-1.8-1.6-3.2-3.4-3.4h-4.5V10.9c0-.2-.1-.5-.1-.7-.1-.4-.2-.7-.5-1-1.5-1.7-4.1-1.8-5.8-.3l-.3.3c-.2.3-.4.6-.5 1-.1.3-.1.6-.2.7V25h-4.5c-.4.1-.8.2-1.1.4-1.1.7-1.7 1.9-1.6 3.2-.1 1.3.5 2.5 1.6 3.2.3.2.7.3 1.1.4.2.1.3.1.5.1h4v26.6c-.1 2.4.5 4.8 1.8 6.9.2.3.5.6.9 1 .4.5.9.9 1.4 1.2.6.4 1.3.7 2 1 .8.3 1.6.4 2.5.4h5.9c2-.3 3.3-2.2 2.9-4.2-.2-1.6-1.4-2.7-2.8-3zM197.6 20.9c-11.8 0-21.5 9.5-21.6 21.4v23.5c0 2.1 1.7 3.8 3.8 3.8 2.1 0 3.8-1.7 3.8-3.8V42.5c-.1-7.8 6.1-14.2 13.9-14.4h.2c7.9 0 14.3 6.3 14.4 14.2v23.4c0 2.1 1.7 3.8 3.8 3.8 2.1 0 3.8-1.7 3.8-3.8V42.3v-.1c-.5-11.8-10.2-21.3-22.1-21.3zM416.6 46.4c-2-1.4-4.3-2.4-6.7-2.9l-5.7-1.4c-2.5-.5-4.9-1.3-7.2-2.3-1.4-.8-2.2-2.3-2.1-3.8 0-.8.2-1.6.5-2.3.4-.7.8-1.4 1.4-2 1.3-1.2 3.4-1.8 6.4-1.8 2.3-.1 4.6.5 6.5 1.7l1.5 1.2h.1c1.4 1.3 3.7 1.2 5-.2 1.3-1.4 1.2-3.5-.1-4.9l-.1-.1-.2-.2c-.2-.1-.3-.3-.5-.4l-.3-.2v-.1l-.1-.1c-3.4-2.3-7.4-3.5-11.5-3.5-2.2-.1-4.4.2-6.5.9-5.6 1.8-9.3 7-9.2 12.8 0 3.9 1.4 6.8 4.2 8.7 1.6 1.1 4.2 2.1 7.9 3l5.6 1.4c2.2.5 4.4 1.3 6.3 2.4 1.1.8 1.7 2.2 1.7 4.3 0 1.2-.3 2.4-1.1 3.4-.9 1-2.1 1.8-3.3 2.2-1.7.6-3.5.8-5.4.8-4.1 0-7.6-.9-9.3-3.8-1.2-1.5-3.3-1.7-4.8-.6-1.5 1.2-1.7 3.3-.6 4.8.1.1.2.3.3.4.4.5.9 1 1.3 1.4 1.5 1.4 3.4 2.6 5.4 3.2 2.3.8 4.7 1.2 7.1 1.1 4.2.1 8.4-.9 12-3.1 3.6-2.1 5.5-5.7 5.5-10.7.2-3.9-1.2-7.1-4-9.3zM379.6 37.4c-1.1-2.7-2.6-5.2-4.5-7.4-1.9-2.1-4.2-3.8-6.7-5-5.2-2.4-11.3-2.4-16.5 0-2.6 1.2-4.8 2.9-6.7 5-2 2.2-3.5 4.6-4.5 7.4-2.2 5.8-2.2 12.2 0 18 1 2.7 2.6 5.2 4.5 7.4 1.9 2.1 4.2 3.8 6.7 5 2.6 1.2 5.4 1.8 8.3 1.8 3 0 6.1-.7 8.8-2 2.3-1 4.4-2.5 5.9-4.5 1.3-1.5 1.1-3.9-.4-5.2-1.5-1.3-3.9-1.1-5.2.4-1 1.3-2.2 2.3-3.5 3.1-3.1 1.7-6.9 1.8-10.1.5-1.5-.6-2.8-1.5-4-2.6-1.2-1.2-2.2-2.5-3-4-.9-1.6-1.5-3.3-1.8-5h34.2c.1-.6.2-1.2.2-1.8s.1-1.3.1-1.9c-.1-3.2-.7-6.3-1.8-9.2zm-32.9 5.2c.3-1.7.9-3.4 1.8-5 .8-1.5 1.8-2.8 3-4 1.2-1.1 2.5-2 4-2.6 2.9-1.2 6.3-1.2 9.2 0 1.5.6 2.8 1.5 4 2.6 1.2 1.2 2.2 2.5 3 4 .8 1.6 1.4 3.3 1.8 5h-26.8zM336.1 22.3h-1.3c-2.2 0-4.4.3-6.6.8-2.2.5-4.4 1.5-6.3 2.8-1.9 1.4-3.5 3.1-4.6 5.2-1.3 2.5-1.9 5.3-1.8 8.1v26.4c0 2.1 1.7 3.8 3.8 3.8 2.1 0 3.8-1.7 3.8-3.8V39.2c-.1-1.6.3-3.2 1.1-4.6.7-1.2 1.7-2.2 2.9-2.9 1.2-.7 2.5-1.2 3.8-1.5 1.3-.3 2.7-.4 4-.4h1.2c2.1-.2 3.6-2.1 3.4-4.1-.3-1.8-1.7-3.3-3.4-3.4z"/><path class="st1" d="M62.2 66.6V45.2c0-9.3-7.5-16.8-16.8-16.8s-16.8 7.5-16.8 16.8S36.1 62 45.4 62h5.2c2.1 0 3.8 1.7 3.8 3.8 0 2.1-1.7 3.8-3.8 3.8h-5.8c-13.5-.3-24.2-11.5-23.8-25 .3-13.5 11.5-24.2 25-23.8 13 .3 23.5 10.8 23.8 23.9v22c-.1 2.1-1.9 3.7-4 3.6-1.9-.2-3.5-1.7-3.6-3.7z"/></svg>