<svg id="logo1" xmlns="http://www.w3.org/2000/svg" viewBox="0 0 593.64 136.27"><defs><style>.cls-1{fill:#00aeef;}.cls-2{fill:#414042;}.cls-3{fill:#fff;}</style></defs><title>logo</title><path class="cls-1" d="M264,279c0-40.28-30.43-68.24-68.12-68.24A68.14,68.14,0,1,0,196,347h68V279Z" transform="translate(-127.7 -210.73)"/><path class="cls-2" d="M433.5,313a7.51,7.51,0,0,1-7.5-7.58v-26.5a19,19,0,1,0-38,0v26.5a7.5,7.5,0,1,1-15,0v-26.5a34,34,0,1,1,68,0v26.5A7.51,7.51,0,0,1,433.5,313Z" transform="translate(-127.7 -210.73)"/><path class="cls-2" d="M519.11,313.08A34.21,34.21,0,1,1,553,278.87v26.5a7.5,7.5,0,1,1-15,0v-26.5a19,19,0,1,0-18.91,19A7.58,7.58,0,0,1,519.11,313.08Z" transform="translate(-127.7 -210.73)"/><path class="cls-2" d="M326.54,313.09A34.21,34.21,0,1,1,361,278.87v26.5a7.5,7.5,0,1,1-15,0v-26.5a19.21,19.21,0,0,0-38.41,0,19,19,0,0,0,19,19A7.58,7.58,0,0,1,326.54,313.09Z" transform="translate(-127.7 -210.73)"/><path class="cls-2" d="M580.49,305.38c0,4.19-2.06,7.58-6.25,7.58s-6.25-3.39-6.25-7.58V272.16c0-2-1.3-11.73,5.88-19.28,5.18-5.45,11.8-8.21,21-8.21a7.3,7.3,0,0,1,7.25,7.58,7.73,7.73,0,0,1-7.75,7.58c-4.88,0-8.56,1.18-10.76,3.49-3.11,3.27-3.1,8.26-3.09,8.31" transform="translate(-127.7 -210.73)"/><path class="cls-3" d="M196,313.18A34.21,34.21,0,1,1,230,279v26.5a7.5,7.5,0,1,1-15,0V279a19,19,0,1,0-19,19A7.58,7.58,0,0,1,196,313.18Z" transform="translate(-127.7 -210.73)"/><path class="cls-2" d="M638.14,313.25c-0.89,0-1.56,0-2-.06-17.62-.15-31.9-15.63-31.9-34.63s14.62-34.63,32.36-34.63S669,257.53,669,276.62v-0.25c0,3.83-2.1,8.62-8.24,8.62H618.37c2.47,9,9.64,14.95,18.08,14.95l0.63,0.06s9.62,0,15.9-4.92a6.59,6.59,0,0,1,8.47,10.08C653.17,312.36,642.73,313.25,638.14,313.25ZM618.37,272h36.16c-2.47-9-9.64-14.88-18.08-14.88S620.84,263,618.37,272Z" transform="translate(-127.7 -210.73)"/><path class="cls-2" d="M470.52,313C460.2,313,452,305.39,452,296.09V231.2c0-3.77,3.32-6.82,7.5-6.82s7.5,3.05,7.5,6.82v64.89a3.3,3.3,0,0,0,3.45,3.22c4.18,0,7.6,3.05,7.6,6.82S474.7,313,470.52,313Z" transform="translate(-127.7 -210.73)"/><path class="cls-2" d="M471.05,258H448.44a7,7,0,0,1,0-14h21.61c3.77,0,7.82,3.23,7.82,7A7,7,0,0,1,471.05,258Z" transform="translate(-127.7 -210.73)"/><path class="cls-2" d="M720.06,284a15.83,15.83,0,0,0-3.36-5,18.27,18.27,0,0,0-4.76-3.39,49,49,0,0,0-5.47-2.31q-2.79-1-5.47-1.78a36,36,0,0,1-4.76-1.76,11,11,0,0,1-3.36-2.29,4.61,4.61,0,0,1-1.28-3.34,6.31,6.31,0,0,1,2.13-5q2.13-1.85,6.48-1.85a14,14,0,0,1,4.48.66,22.83,22.83,0,0,1,3.5,1.49l2.75,1.49,0.08,0a6.54,6.54,0,0,0,6.71-11.21l-0.27-.17-0.09,0-0.18-.1A47.08,47.08,0,0,0,711.5,247a31.43,31.43,0,0,0-5.51-1.42,36.56,36.56,0,0,0-6-.48,26.54,26.54,0,0,0-9.75,1.67,21.83,21.83,0,0,0-7.18,4.46,18.89,18.89,0,0,0-4.44,6.36,18.63,18.63,0,0,0-1.51,7.32,21.08,21.08,0,0,0,1.28,7.85,16,16,0,0,0,3.36,5.31,17.19,17.19,0,0,0,4.74,3.43,39.9,39.9,0,0,0,5.45,2.2q2.79,0.89,5.45,1.62a31.05,31.05,0,0,1,4.74,1.69,9.91,9.91,0,0,1,3.36,2.43,5.56,5.56,0,0,1,1.28,3.8q0,4-2.33,5.88a10.28,10.28,0,0,1-6.54,1.85,15.17,15.17,0,0,1-5.4-.87,25.54,25.54,0,0,1-4.05-1.92q-1.76-1.05-3.16-1.92A6.61,6.61,0,1,0,677.6,307h0a60.76,60.76,0,0,0,7.26,3.84,37.55,37.55,0,0,0,6.25,1.81,32.49,32.49,0,0,0,6.34.64,28.07,28.07,0,0,0,10.14-1.72,21.56,21.56,0,0,0,7.51-4.71,20.26,20.26,0,0,0,4.64-7,23.19,23.19,0,0,0,1.6-8.65A17.82,17.82,0,0,0,720.06,284Z" transform="translate(-127.7 -210.73)"/></svg>