<svg xmlns="http://www.w3.org/2000/svg" viewBox="0 0 379.57 376.35"><defs><style>.cls-1{fill:#fff;}.cls-2{fill:#007aba;}.cls-3{fill:#1494db;}.cls-4{fill:#00aeef;}</style></defs><title>Zasób 17</title><g id="Warstwa_2" data-name="Warstwa 2"><g id="Warstwa_1-2" data-name="Warstwa 1"><path class="cls-1" d="M379.57,202.48c0,88.35-10.27,173.87-123.2,173.87-59.49,0-218.06-52.82-251.32-191.48C-21.18,75.53,57.26,0,182.45,0S379.57,90.65,379.57,202.48Z"/><path class="cls-2" d="M220.7,248.7a16,16,0,0,0-5.21-11,15.83,15.83,0,0,0-11.71-5.17H195.2a41.28,41.28,0,0,1-41.73-37.3c0-.42-.07-.84-.1-1.25q-.07-1.11-.11-2.23c0-.41-.06-.8-.06-1.21,0-.14,0-.27,0-.41a42.78,42.78,0,0,1,8.3-25,51.18,51.18,0,0,1,38.18-17.63l-7.53-1.2a60.1,60.1,0,0,0-41.94,103.18l.08.05c.31.31.61.64.92.95a74.61,74.61,0,0,0,45,15h8.58c.46,0,.89-.09,1.33-.12a16.06,16.06,0,0,0,14.67-15.88C220.78,249.21,220.72,249,220.7,248.7Z"/><path class="cls-3" d="M151.21,250.45a60.16,60.16,0,0,1,42-103.28,60.78,60.78,0,0,1,6.51.36,42.94,42.94,0,0,1,39.56,42.73c0-.09,0-.18,0-.27a102.26,102.26,0,0,0-30.1-72.47c-.45-.44-1-.6-1.47-1a73.79,73.79,0,0,0-11.48-1.16,75,75,0,0,0-45,135.12Z"/><path class="cls-4" d="M234.6,126.36c-11.2-5.63-20.13-8.45-26.67-9.84l-.22,0a11.34,11.34,0,0,0,.93,1.11A102.16,102.16,0,0,1,238.7,190c0,.09,0,.18,0,.27s0,.09,0,.13v59a16,16,0,0,0,17.81,15.9c8.17-.9,14.19-8.11,14.19-16.34V190.4A75,75,0,0,0,234.6,126.36Z"/></g></g></svg>