<svg id="Warstwa_1" data-name="Warstwa 1" xmlns="http://www.w3.org/2000/svg" viewBox="0 0 416 90.18"><defs><style>.cls-1{fill:#03a9f4;}.cls-2{fill:#fff;}</style></defs><title>Full_logo</title><path class="cls-1" d="M317.17,262.92A45.09,45.09,0,1,0,272.08,308h45.09V262.92Z" transform="translate(-226.99 -217.83)"/><path class="cls-1" d="M519.15,284.39V262.94a16.83,16.83,0,1,0-16.83,16.83h5.21a3.8,3.8,0,0,1,0,7.6h-5.79a24.43,24.43,0,1,1,25-24.93c0,0.08,0,.17,0,0.26v21.71A3.8,3.8,0,0,1,519.15,284.39Z" transform="translate(-226.99 -217.83)"/><path class="cls-1" d="M380.15,284.39V262.94a16.83,16.83,0,1,0-16.83,16.83h5.21a3.8,3.8,0,0,1,0,7.6h-5.79a24.43,24.43,0,1,1,25-24.93c0,0.08,0,.17,0,0.26v21.71A3.8,3.8,0,1,1,380.15,284.39Z" transform="translate(-226.99 -217.83)"/><path class="cls-1" d="M467.82,280h-3.09a6,6,0,0,1-2.45-.53,3.22,3.22,0,0,1-1.65-3.21V250h4.5a3.66,3.66,0,0,0,0-7.3h-4.5v-14l0-.09a4,4,0,0,0-.11-0.74,2.69,2.69,0,0,0-.47-1,4.11,4.11,0,0,0-6.07,0,2.67,2.67,0,0,0-.47,1q-0.11.51-.16,0.74v14.1h-4a3,3,0,0,0-.49,0,3.66,3.66,0,0,0-1.12.4,3.37,3.37,0,0,0-1.61,3.17,3.25,3.25,0,0,0,1.61,3.17,3.6,3.6,0,0,0,1.12.4,1.55,1.55,0,0,0,.49.09h4v26.6a11.8,11.8,0,0,0,1.83,6.87q0.31,0.4.87,1a7.36,7.36,0,0,0,1.43,1.21,9.54,9.54,0,0,0,2,1,7.68,7.68,0,0,0,2.45.41v0h5.89A3.6,3.6,0,0,0,467.82,280Z" transform="translate(-226.99 -217.83)"/><path class="cls-1" d="M419.84,238.68A21.62,21.62,0,0,0,398.23,260s0,0,0,.06v23.41a3.76,3.76,0,0,0,7.53,0V260.3a14.13,14.13,0,0,1,14.09-14.36,14.36,14.36,0,0,1,14.36,14.21v23.38a3.76,3.76,0,0,0,7.53,0V260.11s0,0,0-.06A21.85,21.85,0,0,0,419.84,238.68Z" transform="translate(-226.99 -217.83)"/><path class="cls-1" d="M638.84,264.26a18.54,18.54,0,0,0-6.71-2.88l-5.74-1.44a36.76,36.76,0,0,1-7.17-2.25,4.12,4.12,0,0,1-2.06-3.81,5.68,5.68,0,0,1,.49-2.34,7.27,7.27,0,0,1,1.42-2q1.89-1.86,6.4-1.81a10.84,10.84,0,0,1,6.47,1.74h0l1.5,1.2,0.08,0a3.52,3.52,0,0,0,4.84-5.11l0,0-0.12-.11-0.17-.16a3.64,3.64,0,0,0-.49-0.4l-0.26-.22-0.05-.06h0l-0.1-.09a19.55,19.55,0,0,0-11.48-3.46,20.45,20.45,0,0,0-6.48.88A13.14,13.14,0,0,0,610,254.75q-0.05,5.8,4.2,8.7,2.35,1.63,7.92,3l5.57,1.35a21,21,0,0,1,6.32,2.42q1.68,1.18,1.66,4.26a5.34,5.34,0,0,1-1.08,3.38,7.37,7.37,0,0,1-3.35,2.16,16.3,16.3,0,0,1-5.36.8c-4.07,0-7.62-.92-9.3-3.75h0l0,0a3.39,3.39,0,1,0-5,4.55,17.49,17.49,0,0,0,1.35,1.39,15,15,0,0,0,5.46,3.27,22,22,0,0,0,7.13,1.14,22.53,22.53,0,0,0,12-3.06q5.43-3.21,5.5-10.71Q643,267.51,638.84,264.26Z" transform="translate(-226.99 -217.83)"/><path class="cls-1" d="M601.84,255.24a23.8,23.8,0,0,0-4.55-7.36,21.29,21.29,0,0,0-6.74-5,19.76,19.76,0,0,0-16.51,0,21.26,21.26,0,0,0-6.74,5,23.42,23.42,0,0,0-4.53,7.36,25.3,25.3,0,0,0,0,18,23.42,23.42,0,0,0,4.53,7.36,21.27,21.27,0,0,0,6.74,5,19.28,19.28,0,0,0,8.28,1.81,19.08,19.08,0,0,0,8.77-2.05A15,15,0,0,0,597,280.8l0,0a3.66,3.66,0,1,0-5.58-4.75h0a11.25,11.25,0,0,1-3.54,3.08,11.75,11.75,0,0,1-10.13.45,13.31,13.31,0,0,1-4-2.61,16,16,0,0,1-3-3.95,17.22,17.22,0,0,1-1.79-5h34.1v0h0.13q0.13-.89.22-1.83t0.09-1.92A24.17,24.17,0,0,0,601.84,255.24ZM569,260.44a17.21,17.21,0,0,1,1.79-5,16,16,0,0,1,3-4,13.32,13.32,0,0,1,4-2.61,11.74,11.74,0,0,1,9.19,0,13.33,13.33,0,0,1,4,2.61,15.61,15.61,0,0,1,3,4,17.68,17.68,0,0,1,1.76,5H569Z" transform="translate(-226.99 -217.83)"/><path class="cls-1" d="M558.31,240h-1.25a28,28,0,0,0-6.58.84,18.83,18.83,0,0,0-6.27,2.81,15.2,15.2,0,0,0-4.64,5.22,16.56,16.56,0,0,0-1.81,8.12v26.44a3.79,3.79,0,0,0,3.75,3.8h0a3.79,3.79,0,0,0,3.75-3.8V257a8.65,8.65,0,0,1,1.14-4.64,8.79,8.79,0,0,1,2.88-2.9,11.66,11.66,0,0,1,3.84-1.5,20.49,20.49,0,0,1,4-.42h1.17A3.77,3.77,0,0,0,558.31,240Z" transform="translate(-226.99 -217.83)"/><path class="cls-2" d="M289.21,284.46V263a16.83,16.83,0,1,0-16.83,16.83h5.21a3.8,3.8,0,0,1,0,7.6H271.8a24.43,24.43,0,1,1,25-24.93c0,0.08,0,.17,0,0.26v21.71A3.8,3.8,0,1,1,289.21,284.46Z" transform="translate(-226.99 -217.83)"/></svg>