<?xml version="1.0" encoding="utf-8"?>
<!-- Generator: Adobe Illustrator 19.2.1, SVG Export Plug-In . SVG Version: 6.00 Build 0)  -->
<svg version="1.1" id="Warstwa_1" xmlns="http://www.w3.org/2000/svg" xmlns:xlink="http://www.w3.org/1999/xlink" x="0px" y="0px"
	 viewBox="0 0 420.7 90.2" style="enable-background:new 0 0 420.7 90.2;" xml:space="preserve">
<style type="text/css">
	.st0{fill:#FFFFFF;}
	.st1{fill:#00AEEF;}
</style>
<title>Logo z napisem</title>
<path class="st0" d="M90.2,45.1C90.2,20.2,70,0,45.1,0C20.2,0,0,20.2,0,45.1C0,70,20.2,90.2,45.1,90.2l0,0h45.1V45.1z"/>
<path class="st0" d="M296.9,66.6V45.2c0-9.3-7.5-16.8-16.8-16.8c-9.3,0-16.8,7.5-16.8,16.8S270.8,62,280.1,62l0,0h5.2
	c2.1,0,3.8,1.7,3.8,3.8c0,2.1-1.7,3.8-3.8,3.8h-5.8c-13.5-0.3-24.2-11.5-23.8-25c0.3-13.5,11.5-24.2,25-23.8
	c13.1,0.3,23.6,10.8,23.8,23.9c0,0.1,0,0.2,0,0.3v21.7c-0.1,2.1-1.9,3.7-4,3.6C298.5,70.1,297,68.6,296.9,66.6z"/>
<path class="st0" d="M157.9,66.6V45.2c0-9.3-7.5-16.8-16.8-16.8s-16.8,7.5-16.8,16.8S131.8,62,141.1,62h0h5.2c2.1,0,3.8,1.7,3.8,3.8
	c0,2.1-1.7,3.8-3.8,3.8h-5.8c-13.5-0.3-24.2-11.5-23.8-25c0.3-13.5,11.5-24.2,25-23.8c13.1,0.3,23.6,10.8,23.8,23.9
	c0,0.1,0,0.2,0,0.3v21.7c-0.1,2.1-1.9,3.7-4,3.6C159.5,70.1,158,68.6,157.9,66.6z"/>
<path class="st0" d="M245.6,62.2h-3.1c-0.8,0-1.7-0.2-2.5-0.5c-1.2-0.6-1.8-1.9-1.6-3.2V32.3h4.5c2-0.1,3.5-1.9,3.4-3.9
	c-0.1-1.8-1.6-3.2-3.4-3.4h-4.5V11v-0.1c0-0.2-0.1-0.5-0.1-0.7c-0.1-0.4-0.2-0.7-0.5-1c-1.5-1.7-4.1-1.8-5.8-0.3
	c-0.1,0.1-0.2,0.2-0.3,0.3c-0.2,0.3-0.4,0.6-0.5,1c-0.1,0.3-0.1,0.6-0.2,0.7V25h-4c-0.2,0-0.3,0-0.5,0c-0.4,0.1-0.8,0.2-1.1,0.4
	c-1.1,0.7-1.7,1.9-1.6,3.2c-0.1,1.3,0.5,2.5,1.6,3.2c0.3,0.2,0.7,0.3,1.1,0.4c0.2,0.1,0.3,0.1,0.5,0.1h4v26.6
	c-0.1,2.4,0.5,4.8,1.8,6.9c0.2,0.3,0.5,0.6,0.9,1c0.4,0.5,0.9,0.9,1.4,1.2c0.6,0.4,1.3,0.7,2,1c0.8,0.3,1.6,0.4,2.5,0.4l0,0h5.9
	c2-0.3,3.3-2.2,2.9-4.2C248.2,63.6,247,62.5,245.6,62.2z"/>
<path class="st0" d="M197.6,20.9c-11.8,0-21.5,9.5-21.6,21.4c0,0,0,0,0,0.1v23.4c0,2.1,1.7,3.8,3.8,3.8c2.1,0,3.8-1.7,3.8-3.8l0,0
	V42.5c-0.1-7.8,6.1-14.2,13.9-14.4c0.1,0,0.1,0,0.2,0c7.9,0,14.3,6.3,14.4,14.2v23.4c0,2.1,1.7,3.8,3.8,3.8c2.1,0,3.8-1.7,3.8-3.8
	l0,0V42.3c0,0,0,0,0-0.1C219.2,30.4,209.5,20.9,197.6,20.9z"/>
<path class="st0" d="M416.6,46.4c-2-1.4-4.3-2.4-6.7-2.9l-5.7-1.4c-2.5-0.5-4.9-1.3-7.2-2.3c-1.4-0.8-2.2-2.3-2.1-3.8
	c0-0.8,0.2-1.6,0.5-2.3c0.4-0.7,0.8-1.4,1.4-2c1.3-1.2,3.4-1.8,6.4-1.8c2.3-0.1,4.6,0.5,6.5,1.7l0,0l1.5,1.2h0.1
	c1.4,1.3,3.7,1.2,5-0.2c1.3-1.4,1.2-3.5-0.1-4.9l0,0l-0.1-0.1l-0.2-0.2c-0.2-0.1-0.3-0.3-0.5-0.4l-0.3-0.2l0-0.1l0,0l-0.1-0.1
	c-3.4-2.3-7.4-3.5-11.5-3.5c-2.2-0.1-4.4,0.2-6.5,0.9c-5.6,1.8-9.3,7-9.2,12.8c0,3.9,1.4,6.8,4.2,8.7c1.6,1.1,4.2,2.1,7.9,3l5.6,1.4
	c2.2,0.5,4.4,1.3,6.3,2.4c1.1,0.8,1.7,2.2,1.7,4.3c0,1.2-0.3,2.4-1.1,3.4c-0.9,1-2.1,1.8-3.3,2.2c-1.7,0.6-3.5,0.8-5.4,0.8
	c-4.1,0-7.6-0.9-9.3-3.8l0,0l0,0c-1.2-1.5-3.3-1.7-4.8-0.6c-1.5,1.2-1.7,3.3-0.6,4.8c0.1,0.1,0.2,0.3,0.3,0.4c0.4,0.5,0.9,1,1.3,1.4
	c1.5,1.4,3.4,2.6,5.4,3.2c2.3,0.8,4.7,1.2,7.1,1.1c4.2,0.1,8.4-0.9,12-3.1c3.6-2.1,5.5-5.7,5.5-10.7
	C420.8,51.8,419.4,48.6,416.6,46.4z"/>
<path class="st0" d="M379.6,37.4c-1.1-2.7-2.6-5.2-4.5-7.4c-1.9-2.1-4.2-3.8-6.7-5c-5.2-2.4-11.3-2.4-16.5,0c-2.6,1.2-4.8,2.9-6.7,5
	c-2,2.2-3.5,4.6-4.5,7.4c-2.2,5.8-2.2,12.2,0,18c1,2.7,2.6,5.2,4.5,7.4c1.9,2.1,4.2,3.8,6.7,5c2.6,1.2,5.4,1.8,8.3,1.8
	c3,0,6.1-0.7,8.8-2c2.3-1,4.4-2.5,5.9-4.5l0,0c1.3-1.5,1.1-3.9-0.4-5.2c-1.5-1.3-3.9-1.1-5.2,0.4l0,0l0,0c-1,1.3-2.2,2.3-3.5,3.1
	c-3.1,1.7-6.9,1.8-10.1,0.5c-1.5-0.6-2.8-1.5-4-2.6c-1.2-1.2-2.2-2.5-3-4c-0.9-1.6-1.5-3.3-1.8-5h34.1l0,0h0.1
	c0.1-0.6,0.2-1.2,0.2-1.8s0.1-1.3,0.1-1.9C381.3,43.4,380.7,40.3,379.6,37.4z M346.7,42.6c0.3-1.7,0.9-3.4,1.8-5
	c0.8-1.5,1.8-2.8,3-4c1.2-1.1,2.5-2,4-2.6c2.9-1.2,6.3-1.2,9.2,0c1.5,0.6,2.8,1.5,4,2.6c1.2,1.2,2.2,2.5,3,4c0.8,1.6,1.4,3.3,1.8,5
	H346.7z"/>
<path class="st0" d="M336.1,22.3h-1.3c-2.2,0-4.4,0.3-6.6,0.8c-2.2,0.5-4.4,1.5-6.3,2.8c-1.9,1.4-3.5,3.1-4.6,5.2
	c-1.3,2.5-1.9,5.3-1.8,8.1v26.4c0,2.1,1.7,3.8,3.8,3.8l0,0c2.1,0,3.8-1.7,3.8-3.8V39.2c-0.1-1.6,0.3-3.2,1.1-4.6
	c0.7-1.2,1.7-2.2,2.9-2.9c1.2-0.7,2.5-1.2,3.8-1.5c1.3-0.3,2.7-0.4,4-0.4h1.2c2.1-0.2,3.6-2.1,3.4-4.1
	C339.2,23.9,337.8,22.4,336.1,22.3z"/>
<path class="st1" d="M62.2,66.6V45.2c0-9.3-7.5-16.8-16.8-16.8s-16.8,7.5-16.8,16.8S36.1,62,45.4,62h0h5.2c2.1,0,3.8,1.7,3.8,3.8
	c0,2.1-1.7,3.8-3.8,3.8h-5.8c-13.5-0.3-24.2-11.5-23.8-25c0.3-13.5,11.5-24.2,25-23.8C59,21.1,69.5,31.6,69.8,44.7
	c0,0.1,0,0.2,0,0.3v21.7c-0.1,2.1-1.9,3.7-4,3.6C63.9,70.1,62.3,68.6,62.2,66.6z"/>
</svg>
