<svg xmlns="http://www.w3.org/2000/svg" width="28" height="28" viewBox="0 0 28 28"><path fill-rule="evenodd" clip-rule="evenodd" d="M28 25c0 1.031-.119 2.033-.33 3H.33A14.049 14.049 0 0 1 0 25c0-6.203 4.038-8.242 9.626-8.807C8.027 14.518 7 11.586 7 7a7 7 0 1 1 14 0c0 4.576-1.031 7.513-2.635 9.191C23.958 16.756 28 18.793 28 25zM19 7.444C19 4.438 16.761 2 14 2S9 4.438 9 7.444C9 13.684 11.239 16 14 16s5-2.34 5-8.556zM14 18c-6.627 0-12 .373-12 7 0 .339.038.668.068 1h23.864c.03-.332.068-.661.068-1 0-6.627-5.373-7-12-7z"/></svg>