<svg xmlns="http://www.w3.org/2000/svg" width="28" height="24.609" viewBox="0 0 28 24.609"><path fill-rule="evenodd" clip-rule="evenodd" d="M23.118 24.609L21.7 23.191c2.624-2.2 4.294-5.5 4.294-9.191 0-6.625-5.37-11.995-11.995-11.995S2.005 7.375 2.005 14c0 3.437 1.454 6.528 3.77 8.715l-1.418 1.418C1.678 21.583 0 17.991 0 14 0 6.268 6.268 0 14 0s14 6.268 14 14c0 4.246-1.897 8.042-4.882 10.609zM12.267 11.558a1.09 1.09 0 0 1 .383-.292L20 8l-3.183 7.162a1.373 1.373 0 0 1-.257.383A2.99 2.99 0 0 1 14 17a3 3 0 0 1-3-3 2.99 2.99 0 0 1 1.267-2.442z"/></svg>