<svg xmlns="http://www.w3.org/2000/svg" width="27.976" height="27.976" viewBox="0 0 27.976 27.976"><path fill-rule="evenodd" clip-rule="evenodd" d="M25.186 22.364l.112.113-1.414 1.414-1.414 1.414-.111-.111a13.99 13.99 0 0 1-16.747-.002l-.113.113-2.828-2.828.112-.113a13.99 13.99 0 0 1-.001-16.747l-.111-.111 2.828-2.828.113.112c5.483-4.108 13.286-3.684 18.272 1.302 4.986 4.986 5.409 12.789 1.302 18.272zm-4.253 1.405l-2.906-2.906a7.99 7.99 0 0 1-8.085 0L7.04 23.764a12.001 12.001 0 0 0 13.893.005zM9.745 9.752a5.996 5.996 0 1 0 8.481 8.479 5.996 5.996 0 0 0-8.481-8.479zM4.212 20.935l2.901-2.901a7.99 7.99 0 0 1 0-8.085L4.207 7.042a12.001 12.001 0 0 0 .005 13.893zM7.035 4.214L9.942 7.12a7.99 7.99 0 0 1 8.085 0l2.901-2.901a12.001 12.001 0 0 0-13.893-.005zm16.722 2.833l-2.901 2.901a7.99 7.99 0 0 1 0 8.085l2.906 2.906a12.001 12.001 0 0 0-.005-13.892z"/></svg>