<svg id="Warstwa_1" data-name="Warstwa 1" xmlns="http://www.w3.org/2000/svg" viewBox="0 0 416 90.18"><defs><style>.cls-1{fill:#03a9f4}.cls-2{fill:#fff}</style></defs><title>Full_logo</title><path class="cls-1" d="M317.17 262.92A45.09 45.09 0 1 0 272.08 308h45.09v-45.08zM519.15 284.39v-21.45a16.83 16.83 0 1 0-16.83 16.83h5.21a3.8 3.8 0 0 1 0 7.6h-5.79a24.43 24.43 0 1 1 25-24.93V284.41a3.8 3.8 0 0 1-7.59-.02zM380.15 284.39v-21.45a16.83 16.83 0 1 0-16.83 16.83h5.21a3.8 3.8 0 0 1 0 7.6h-5.79a24.43 24.43 0 1 1 25-24.93V284.41a3.8 3.8 0 1 1-7.59-.02zM467.82 280h-3.09a6 6 0 0 1-2.45-.53 3.22 3.22 0 0 1-1.65-3.21V250h4.5a3.66 3.66 0 0 0 0-7.3h-4.5v-14.09a4 4 0 0 0-.11-.74 2.69 2.69 0 0 0-.47-1 4.11 4.11 0 0 0-6.07 0 2.67 2.67 0 0 0-.47 1l-.16.74v14.1h-4a3 3 0 0 0-.49 0 3.66 3.66 0 0 0-1.12.4 3.37 3.37 0 0 0-1.61 3.17 3.25 3.25 0 0 0 1.61 3.17 3.6 3.6 0 0 0 1.12.4 1.55 1.55 0 0 0 .49.09h4v26.6a11.8 11.8 0 0 0 1.83 6.87q.31.4.87 1a7.36 7.36 0 0 0 1.43 1.21 9.54 9.54 0 0 0 2 1 7.68 7.68 0 0 0 2.45.41h5.89a3.6 3.6 0 0 0 0-7.03zM419.84 238.68A21.62 21.62 0 0 0 398.23 260v23.47a3.76 3.76 0 0 0 7.53 0V260.3a14.13 14.13 0 0 1 14.09-14.36 14.36 14.36 0 0 1 14.36 14.21v23.38a3.76 3.76 0 0 0 7.53 0v-23.42-.06a21.85 21.85 0 0 0-21.9-21.37zM638.84 264.26a18.54 18.54 0 0 0-6.71-2.88l-5.74-1.44a36.76 36.76 0 0 1-7.17-2.25 4.12 4.12 0 0 1-2.06-3.81 5.68 5.68 0 0 1 .49-2.34 7.27 7.27 0 0 1 1.42-2q1.89-1.86 6.4-1.81a10.84 10.84 0 0 1 6.47 1.74l1.5 1.2h.08a3.52 3.52 0 0 0 4.84-5.11l-.12-.11-.17-.16a3.64 3.64 0 0 0-.49-.4l-.26-.22-.05-.06-.1-.09a19.55 19.55 0 0 0-11.48-3.46 20.45 20.45 0 0 0-6.48.88 13.14 13.14 0 0 0-9.21 12.81q-.05 5.8 4.2 8.7 2.35 1.63 7.92 3l5.57 1.35a21 21 0 0 1 6.32 2.42q1.68 1.18 1.66 4.26a5.34 5.34 0 0 1-1.08 3.38 7.37 7.37 0 0 1-3.35 2.16 16.3 16.3 0 0 1-5.36.8c-4.07 0-7.62-.92-9.3-3.75a3.39 3.39 0 1 0-5 4.55 17.49 17.49 0 0 0 1.35 1.39 15 15 0 0 0 5.46 3.27 22 22 0 0 0 7.13 1.14 22.53 22.53 0 0 0 12-3.06q5.43-3.21 5.5-10.71-.02-6.14-4.18-9.39zM601.84 255.24a23.8 23.8 0 0 0-4.55-7.36 21.29 21.29 0 0 0-6.74-5 19.76 19.76 0 0 0-16.51 0 21.26 21.26 0 0 0-6.74 5 23.42 23.42 0 0 0-4.53 7.36 25.3 25.3 0 0 0 0 18 23.42 23.42 0 0 0 4.53 7.36 21.27 21.27 0 0 0 6.74 5 19.28 19.28 0 0 0 8.28 1.81 19.08 19.08 0 0 0 8.77-2.05 15 15 0 0 0 5.91-4.56 3.66 3.66 0 1 0-5.58-4.75 11.25 11.25 0 0 1-3.54 3.08 11.75 11.75 0 0 1-10.13.45 13.31 13.31 0 0 1-4-2.61 16 16 0 0 1-3-3.95 17.22 17.22 0 0 1-1.79-5H603.19q.13-.89.22-1.83t.09-1.92a24.17 24.17 0 0 0-1.66-9.03zm-32.84 5.2a17.21 17.21 0 0 1 1.79-5 16 16 0 0 1 3-4 13.32 13.32 0 0 1 4-2.61 11.74 11.74 0 0 1 9.19 0 13.33 13.33 0 0 1 4 2.61 15.61 15.61 0 0 1 3 4 17.68 17.68 0 0 1 1.76 5H569zM558.31 240h-1.25a28 28 0 0 0-6.58.84 18.83 18.83 0 0 0-6.27 2.81 15.2 15.2 0 0 0-4.64 5.22 16.56 16.56 0 0 0-1.81 8.12v26.44a3.79 3.79 0 0 0 3.75 3.8 3.79 3.79 0 0 0 3.75-3.8V257a8.65 8.65 0 0 1 1.14-4.64 8.79 8.79 0 0 1 2.88-2.9 11.66 11.66 0 0 1 3.84-1.5 20.49 20.49 0 0 1 4-.42h1.17a3.77 3.77 0 0 0 .02-7.54z" transform="translate(-226.99 -217.83)"/><path class="cls-2" d="M289.21 284.46V263a16.83 16.83 0 1 0-16.83 16.83h5.21a3.8 3.8 0 0 1 0 7.6h-5.79a24.43 24.43 0 1 1 25-24.93V284.47a3.8 3.8 0 1 1-7.59-.01z" transform="translate(-226.99 -217.83)"/></svg>